M48
; DRILL file {KiCad (6.0.2)} date Thu Jun 23 10:32:32 2022
; FORMAT={-:-/ absolute / metric / decimal}
; #@! TF.CreationDate,2022-06-23T10:32:32-05:00
; #@! TF.GenerationSoftware,Kicad,Pcbnew,(6.0.2)
; #@! TF.FileFunction,Plated,1,2,PTH
FMAT,2
METRIC
; #@! TA.AperFunction,Plated,PTH,ViaDrill
T1C0.305
; #@! TA.AperFunction,Plated,PTH,ComponentDrill
T2C1.000
%
G90
G05
T1
X24.3Y-54.45
X25.6Y-37.15
X26.0Y-42.85
X26.0Y-43.45
X26.0Y-44.05
X26.0Y-44.65
X26.0Y-45.25
X26.0Y-45.9
X26.0Y-46.55
X26.0Y-47.2
X26.15Y-60.0
X26.85Y-37.15
X30.4Y-30.3
X30.65Y-33.9
X30.9Y-31.8
X32.95Y-29.55
X33.15Y-37.15
X33.35Y-31.8
X36.0Y-29.6
X36.45Y-50.35
X36.65Y-37.972
X36.65Y-38.8
X37.05Y-33.75
X37.4Y-49.25
X39.55Y-26.6
X39.85Y-35.45
X41.45Y-38.3
X41.75Y-41.8
X41.75Y-40.1
X41.8Y-43.45
X42.4Y-27.3
X43.35Y-22.85
X43.35Y-25.4
X43.9Y-53.35
X45.15Y-53.25
X45.25Y-29.0
X45.65Y-41.8
X45.85Y-52.525
X46.4Y-39.25
X48.4Y-43.4
X49.4Y-30.1
X49.45Y-33.0
X49.5Y-31.5
X51.05Y-37.1
X51.95Y-36.25
X52.9Y-44.8
X53.6Y-44.8
X54.4Y-48.8
X54.6Y-55.9
X55.0Y-54.5
X55.8Y-53.6
X55.863Y-39.587
X56.4Y-51.3
X57.15Y-41.65
X57.7Y-42.926
X58.45Y-34.4
X60.3Y-31.5
X60.95Y-28.7
X61.25Y-33.9
X62.1Y-22.95
X62.1Y-25.1
X63.962Y-33.438
X66.0Y-34.3
X67.05Y-41.6
X67.7Y-40.85
X72.3Y-25.5
X72.65Y-33.25
X73.2Y-61.8
X75.9Y-58.1
X76.35Y-40.45
X77.5Y-45.15
X78.15Y-50.6
X78.7Y-55.1
X78.7Y-55.95
X78.7Y-56.7
X78.8Y-50.6
X79.0Y-41.2
X79.95Y-40.0
X80.0Y-35.175
X80.85Y-44.85
X82.05Y-46.0
X82.05Y-60.7
X83.4Y-40.7
X83.45Y-37.6
X83.555Y-38.689
X84.15Y-37.3
X84.75Y-51.95
X85.1Y-43.2
X85.1Y-47.5
X85.15Y-60.65
X85.175Y-41.9
X85.2Y-34.0
X86.6Y-37.0
X86.6Y-38.25
X86.6Y-39.55
X87.85Y-37.0
X87.85Y-38.25
X87.85Y-39.55
X88.7Y-42.3
X88.95Y-39.55
X89.0Y-37.0
X89.0Y-38.25
X90.2Y-41.5
X90.2Y-45.7
X90.401Y-46.503
X90.6Y-42.6
X91.6Y-37.9
X92.6Y-57.9
X93.9Y-40.4
X93.9Y-49.4
X96.4Y-56.2
X96.6Y-49.3
X96.7Y-40.4
X97.7Y-37.1
T2
X22.025Y-27.275
X24.565Y-27.275
X27.105Y-27.275
X27.2Y-66.375
X29.645Y-27.275
X29.74Y-66.375
X32.185Y-27.275
X32.28Y-66.375
X34.725Y-27.275
X37.35Y-66.375
X39.89Y-66.375
X42.43Y-66.375
X44.97Y-66.375
X47.51Y-66.375
X48.2Y-27.5
X50.05Y-66.375
X50.74Y-27.5
X52.59Y-66.375
X53.28Y-27.5
X55.13Y-66.375
X55.82Y-27.5
X56.925Y-48.0
X57.67Y-66.375
X59.465Y-48.0
X60.21Y-66.375
X62.005Y-48.0
X62.75Y-66.375
X64.545Y-48.0
X65.29Y-66.375
X67.085Y-48.0
X67.83Y-66.375
X69.625Y-48.0
X70.37Y-66.375
X72.165Y-48.0
X72.91Y-66.375
X73.9Y-36.9
X73.9Y-39.44
X74.705Y-48.0
X75.45Y-66.375
X79.3Y-66.35
X81.84Y-66.35
X83.35Y-24.15
X83.35Y-26.69
X83.35Y-29.23
X83.35Y-31.77
X84.38Y-66.35
X86.92Y-66.35
X87.95Y-24.15
X87.95Y-26.69
X87.95Y-29.23
X87.95Y-31.77
X90.65Y-66.4
X92.55Y-24.15
X92.55Y-26.69
X92.55Y-29.23
X92.55Y-31.77
X93.19Y-66.4
T0
M30
