%TF.GenerationSoftware,KiCad,Pcbnew,(6.0.2)*%
%TF.CreationDate,2022-06-23T10:32:29-05:00*%
%TF.ProjectId,ESP32_BUAP_DESARROLLO,45535033-325f-4425-9541-505f44455341,rev?*%
%TF.SameCoordinates,Original*%
%TF.FileFunction,Copper,L1,Top*%
%TF.FilePolarity,Positive*%
%FSLAX46Y46*%
G04 Gerber Fmt 4.6, Leading zero omitted, Abs format (unit mm)*
G04 Created by KiCad (PCBNEW (6.0.2)) date 2022-06-23 10:32:29*
%MOMM*%
%LPD*%
G01*
G04 APERTURE LIST*
G04 Aperture macros list*
%AMRoundRect*
0 Rectangle with rounded corners*
0 $1 Rounding radius*
0 $2 $3 $4 $5 $6 $7 $8 $9 X,Y pos of 4 corners*
0 Add a 4 corners polygon primitive as box body*
4,1,4,$2,$3,$4,$5,$6,$7,$8,$9,$2,$3,0*
0 Add four circle primitives for the rounded corners*
1,1,$1+$1,$2,$3*
1,1,$1+$1,$4,$5*
1,1,$1+$1,$6,$7*
1,1,$1+$1,$8,$9*
0 Add four rect primitives between the rounded corners*
20,1,$1+$1,$2,$3,$4,$5,0*
20,1,$1+$1,$4,$5,$6,$7,0*
20,1,$1+$1,$6,$7,$8,$9,0*
20,1,$1+$1,$8,$9,$2,$3,0*%
G04 Aperture macros list end*
%TA.AperFunction,SMDPad,CuDef*%
%ADD10RoundRect,0.250000X-0.450000X0.325000X-0.450000X-0.325000X0.450000X-0.325000X0.450000X0.325000X0*%
%TD*%
%TA.AperFunction,SMDPad,CuDef*%
%ADD11RoundRect,0.237500X-0.250000X-0.237500X0.250000X-0.237500X0.250000X0.237500X-0.250000X0.237500X0*%
%TD*%
%TA.AperFunction,SMDPad,CuDef*%
%ADD12RoundRect,0.237500X0.237500X-0.250000X0.237500X0.250000X-0.237500X0.250000X-0.237500X-0.250000X0*%
%TD*%
%TA.AperFunction,SMDPad,CuDef*%
%ADD13RoundRect,0.250000X-0.325000X-0.450000X0.325000X-0.450000X0.325000X0.450000X-0.325000X0.450000X0*%
%TD*%
%TA.AperFunction,SMDPad,CuDef*%
%ADD14RoundRect,0.150000X-0.150000X0.587500X-0.150000X-0.587500X0.150000X-0.587500X0.150000X0.587500X0*%
%TD*%
%TA.AperFunction,ComponentPad*%
%ADD15R,1.700000X1.700000*%
%TD*%
%TA.AperFunction,ComponentPad*%
%ADD16O,1.700000X1.700000*%
%TD*%
%TA.AperFunction,SMDPad,CuDef*%
%ADD17RoundRect,0.250000X0.412500X1.100000X-0.412500X1.100000X-0.412500X-1.100000X0.412500X-1.100000X0*%
%TD*%
%TA.AperFunction,SMDPad,CuDef*%
%ADD18RoundRect,0.250000X-0.412500X-1.100000X0.412500X-1.100000X0.412500X1.100000X-0.412500X1.100000X0*%
%TD*%
%TA.AperFunction,SMDPad,CuDef*%
%ADD19RoundRect,0.237500X-0.237500X0.250000X-0.237500X-0.250000X0.237500X-0.250000X0.237500X0.250000X0*%
%TD*%
%TA.AperFunction,SMDPad,CuDef*%
%ADD20RoundRect,0.150000X0.150000X-0.587500X0.150000X0.587500X-0.150000X0.587500X-0.150000X-0.587500X0*%
%TD*%
%TA.AperFunction,SMDPad,CuDef*%
%ADD21R,1.800000X2.500000*%
%TD*%
%TA.AperFunction,SMDPad,CuDef*%
%ADD22R,0.900000X1.700000*%
%TD*%
%TA.AperFunction,SMDPad,CuDef*%
%ADD23RoundRect,0.250000X-0.475000X0.337500X-0.475000X-0.337500X0.475000X-0.337500X0.475000X0.337500X0*%
%TD*%
%TA.AperFunction,SMDPad,CuDef*%
%ADD24RoundRect,0.062500X0.062500X-0.337500X0.062500X0.337500X-0.062500X0.337500X-0.062500X-0.337500X0*%
%TD*%
%TA.AperFunction,SMDPad,CuDef*%
%ADD25RoundRect,0.062500X0.337500X-0.062500X0.337500X0.062500X-0.337500X0.062500X-0.337500X-0.062500X0*%
%TD*%
%TA.AperFunction,SMDPad,CuDef*%
%ADD26R,3.350000X3.350000*%
%TD*%
%TA.AperFunction,SMDPad,CuDef*%
%ADD27RoundRect,0.250000X-0.337500X-0.475000X0.337500X-0.475000X0.337500X0.475000X-0.337500X0.475000X0*%
%TD*%
%TA.AperFunction,SMDPad,CuDef*%
%ADD28R,1.500000X2.000000*%
%TD*%
%TA.AperFunction,SMDPad,CuDef*%
%ADD29R,3.800000X2.000000*%
%TD*%
%TA.AperFunction,SMDPad,CuDef*%
%ADD30R,0.900000X2.000000*%
%TD*%
%TA.AperFunction,SMDPad,CuDef*%
%ADD31R,2.000000X0.900000*%
%TD*%
%TA.AperFunction,SMDPad,CuDef*%
%ADD32R,5.000000X5.000000*%
%TD*%
%TA.AperFunction,SMDPad,CuDef*%
%ADD33R,1.500000X1.500000*%
%TD*%
%TA.AperFunction,SMDPad,CuDef*%
%ADD34R,2.000000X0.500000*%
%TD*%
%TA.AperFunction,SMDPad,CuDef*%
%ADD35R,1.700000X2.000000*%
%TD*%
%TA.AperFunction,ViaPad*%
%ADD36C,0.457200*%
%TD*%
%TA.AperFunction,Conductor*%
%ADD37C,0.250000*%
%TD*%
%TA.AperFunction,Conductor*%
%ADD38C,0.457200*%
%TD*%
%TA.AperFunction,Conductor*%
%ADD39C,0.381000*%
%TD*%
G04 APERTURE END LIST*
D10*
%TO.P,D4,1,K*%
%TO.N,/SCL*%
X60850003Y-52575002D03*
%TO.P,D4,2,A*%
%TO.N,Net-(D4-Pad2)*%
X60850003Y-54625002D03*
%TD*%
D11*
%TO.P,R2,1*%
%TO.N,/GPIO4*%
X42787500Y-36700000D03*
%TO.P,R2,2*%
%TO.N,Earth*%
X44612500Y-36700000D03*
%TD*%
D12*
%TO.P,R15,1*%
%TO.N,/RTS*%
X77450000Y-40762500D03*
%TO.P,R15,2*%
%TO.N,Net-(Q2-Pad2)*%
X77450000Y-38937500D03*
%TD*%
D13*
%TO.P,D2,1,K*%
%TO.N,Earth*%
X20975000Y-62600002D03*
%TO.P,D2,2,A*%
%TO.N,Net-(D2-Pad2)*%
X23025000Y-62600002D03*
%TD*%
D14*
%TO.P,Q2,1,E*%
%TO.N,/DTR*%
X80850000Y-36812500D03*
%TO.P,Q2,2,B*%
%TO.N,Net-(Q2-Pad2)*%
X78950000Y-36812500D03*
%TO.P,Q2,3,C*%
%TO.N,/GPIO0*%
X79900000Y-38687500D03*
%TD*%
D15*
%TO.P,J7,1,Pin_1*%
%TO.N,/GPIO39*%
X37350000Y-66375000D03*
D16*
%TO.P,J7,2,Pin_2*%
%TO.N,/GPIO34*%
X39890000Y-66375000D03*
%TO.P,J7,3,Pin_3*%
%TO.N,/GPIO35*%
X42430000Y-66375000D03*
%TO.P,J7,4,Pin_4*%
%TO.N,/GPIO32*%
X44970000Y-66375000D03*
%TO.P,J7,5,Pin_5*%
%TO.N,/GPIO33*%
X47510000Y-66375000D03*
%TO.P,J7,6,Pin_6*%
%TO.N,/GPIO25*%
X50050000Y-66375000D03*
%TO.P,J7,7,Pin_7*%
%TO.N,/GPIO26*%
X52590000Y-66375000D03*
%TO.P,J7,8,Pin_8*%
%TO.N,/GPIO27*%
X55130000Y-66375000D03*
%TO.P,J7,9,Pin_9*%
%TO.N,/GPIO14*%
X57670000Y-66375000D03*
%TO.P,J7,10,Pin_10*%
%TO.N,/GPIO12*%
X60210000Y-66375000D03*
%TO.P,J7,11,Pin_11*%
%TO.N,/GPIO13*%
X62750000Y-66375000D03*
%TO.P,J7,12,Pin_12*%
%TO.N,/GPIO15*%
X65290000Y-66375000D03*
%TO.P,J7,13,Pin_13*%
%TO.N,/TX0*%
X67830000Y-66375000D03*
%TO.P,J7,14,Pin_14*%
%TO.N,/RX0*%
X70370000Y-66375000D03*
%TO.P,J7,15,Pin_15*%
%TO.N,Earth*%
X72910000Y-66375000D03*
%TO.P,J7,16,Pin_16*%
X75450000Y-66375000D03*
%TD*%
D17*
%TO.P,C1,1*%
%TO.N,/Vin*%
X82012500Y-58550000D03*
%TO.P,C1,2*%
%TO.N,Earth*%
X78887500Y-58550000D03*
%TD*%
D18*
%TO.P,C5,1*%
%TO.N,Earth*%
X21187500Y-60000000D03*
%TO.P,C5,2*%
%TO.N,VDDMICRO*%
X24312500Y-60000000D03*
%TD*%
D19*
%TO.P,R10,1*%
%TO.N,Net-(D1-Pad2)*%
X58800009Y-56287506D03*
%TO.P,R10,2*%
%TO.N,Net-(JP1-Pad2)*%
X58800009Y-58112506D03*
%TD*%
D11*
%TO.P,R13,1*%
%TO.N,/CS*%
X42787500Y-40050000D03*
%TO.P,R13,2*%
%TO.N,VDD3V3*%
X44612500Y-40050000D03*
%TD*%
%TO.P,R7,1*%
%TO.N,/TX0*%
X42787500Y-45200000D03*
%TO.P,R7,2*%
%TO.N,Net-(R7-Pad2)*%
X44612500Y-45200000D03*
%TD*%
D10*
%TO.P,D6,1,K*%
%TO.N,/MISO*%
X64950003Y-52575000D03*
%TO.P,D6,2,A*%
%TO.N,Net-(D6-Pad2)*%
X64950003Y-54625000D03*
%TD*%
D19*
%TO.P,R17,1*%
%TO.N,Net-(D5-Pad2)*%
X62900001Y-56237493D03*
%TO.P,R17,2*%
%TO.N,Net-(JP1-Pad2)*%
X62900001Y-58062493D03*
%TD*%
D11*
%TO.P,R12,1*%
%TO.N,/TX0*%
X42787500Y-43500000D03*
%TO.P,R12,2*%
%TO.N,VDD3V3*%
X44612500Y-43500000D03*
%TD*%
D10*
%TO.P,D8,1,K*%
%TO.N,/CS*%
X69050003Y-52575000D03*
%TO.P,D8,2,A*%
%TO.N,Net-(D8-Pad2)*%
X69050003Y-54625000D03*
%TD*%
D19*
%TO.P,R5,1*%
%TO.N,Net-(D2-Pad2)*%
X24600000Y-62387500D03*
%TO.P,R5,2*%
%TO.N,VDD3V3*%
X24600000Y-64212500D03*
%TD*%
D20*
%TO.P,Q1,1,E*%
%TO.N,/RTS*%
X78950000Y-43387500D03*
%TO.P,Q1,2,B*%
%TO.N,Net-(Q1-Pad2)*%
X80850000Y-43387500D03*
%TO.P,Q1,3,C*%
%TO.N,/EN*%
X79900000Y-41512500D03*
%TD*%
D10*
%TO.P,D10,1,K*%
%TO.N,/RX2*%
X73200000Y-52575000D03*
%TO.P,D10,2,A*%
%TO.N,Net-(D10-Pad2)*%
X73200000Y-54625000D03*
%TD*%
D19*
%TO.P,R22,1*%
%TO.N,Net-(D10-Pad2)*%
X73200003Y-56237500D03*
%TO.P,R22,2*%
%TO.N,Net-(JP1-Pad2)*%
X73200003Y-58062500D03*
%TD*%
D15*
%TO.P,J2,1,Pin_1*%
%TO.N,Earth*%
X22025000Y-27275000D03*
D16*
%TO.P,J2,2,Pin_2*%
%TO.N,/Vin*%
X24565000Y-27275000D03*
%TO.P,J2,3,Pin_3*%
%TO.N,/MISO*%
X27105000Y-27275000D03*
%TO.P,J2,4,Pin_4*%
%TO.N,/MOSI*%
X29645000Y-27275000D03*
%TO.P,J2,5,Pin_5*%
%TO.N,/SCK*%
X32185000Y-27275000D03*
%TO.P,J2,6,Pin_6*%
%TO.N,/CS*%
X34725000Y-27275000D03*
%TD*%
D10*
%TO.P,D7,1,K*%
%TO.N,/SCK*%
X67000008Y-52574990D03*
%TO.P,D7,2,A*%
%TO.N,Net-(D7-Pad2)*%
X67000008Y-54624990D03*
%TD*%
D17*
%TO.P,C3,1*%
%TO.N,VDD3V3*%
X81862500Y-53000000D03*
%TO.P,C3,2*%
%TO.N,Earth*%
X78737500Y-53000000D03*
%TD*%
D15*
%TO.P,J5,1,Pin_1*%
%TO.N,Earth*%
X92550000Y-31770000D03*
D16*
%TO.P,J5,2,Pin_2*%
%TO.N,VDD3V3*%
X92550000Y-29230000D03*
%TO.P,J5,3,Pin_3*%
%TO.N,/SCL*%
X92550000Y-26690000D03*
%TO.P,J5,4,Pin_4*%
%TO.N,/SDA*%
X92550000Y-24150000D03*
%TD*%
D21*
%TO.P,D3,1,K*%
%TO.N,/Vin*%
X96400010Y-62300006D03*
%TO.P,D3,2,A*%
%TO.N,VCCUSB*%
X96400010Y-58300006D03*
%TD*%
D15*
%TO.P,J4,1,Pin_1*%
%TO.N,Earth*%
X83350000Y-31770000D03*
D16*
%TO.P,J4,2,Pin_2*%
%TO.N,VDD3V3*%
X83350000Y-29230000D03*
%TO.P,J4,3,Pin_3*%
%TO.N,/SCL*%
X83350000Y-26690000D03*
%TO.P,J4,4,Pin_4*%
%TO.N,/SDA*%
X83350000Y-24150000D03*
%TD*%
D12*
%TO.P,R11,1*%
%TO.N,VDDMICRO*%
X24300000Y-57412500D03*
%TO.P,R11,2*%
%TO.N,/EN*%
X24300000Y-55587500D03*
%TD*%
D15*
%TO.P,J6,1,Pin_1*%
%TO.N,Earth*%
X87950000Y-31770000D03*
D16*
%TO.P,J6,2,Pin_2*%
%TO.N,VDD3V3*%
X87950000Y-29230000D03*
%TO.P,J6,3,Pin_3*%
%TO.N,/SCL*%
X87950000Y-26690000D03*
%TO.P,J6,4,Pin_4*%
%TO.N,/SDA*%
X87950000Y-24150000D03*
%TD*%
D15*
%TO.P,J9,1,Pin_1*%
%TO.N,/MOSI*%
X56925007Y-48000006D03*
D16*
%TO.P,J9,2,Pin_2*%
%TO.N,/SCL*%
X59465007Y-48000006D03*
%TO.P,J9,3,Pin_3*%
%TO.N,/SDA*%
X62005007Y-48000006D03*
%TO.P,J9,4,Pin_4*%
%TO.N,/MISO*%
X64545007Y-48000006D03*
%TO.P,J9,5,Pin_5*%
%TO.N,/SCK*%
X67085007Y-48000006D03*
%TO.P,J9,6,Pin_6*%
%TO.N,/CS*%
X69625007Y-48000006D03*
%TO.P,J9,7,Pin_7*%
%TO.N,/TX2*%
X72165007Y-48000006D03*
%TO.P,J9,8,Pin_8*%
%TO.N,/RX2*%
X74705007Y-48000006D03*
%TD*%
D22*
%TO.P,RST1,1,1*%
%TO.N,/EN*%
X95300009Y-53999994D03*
%TO.P,RST1,2,2*%
%TO.N,Earth*%
X98700009Y-53999994D03*
%TD*%
D23*
%TO.P,C4,1*%
%TO.N,/EN*%
X92600000Y-54700000D03*
%TO.P,C4,2*%
%TO.N,Earth*%
X92600000Y-56775000D03*
%TD*%
D24*
%TO.P,U1,1,~{DCD}*%
%TO.N,unconnected-(U1-Pad1)*%
X86300002Y-40700012D03*
%TO.P,U1,2,~{RI}/CLK*%
%TO.N,unconnected-(U1-Pad2)*%
X86800002Y-40700012D03*
%TO.P,U1,3,GND*%
%TO.N,Earth*%
X87300002Y-40700012D03*
%TO.P,U1,4,D+*%
%TO.N,Net-(J1-Pad3)*%
X87800002Y-40700012D03*
%TO.P,U1,5,D-*%
%TO.N,Net-(J1-Pad2)*%
X88300002Y-40700012D03*
%TO.P,U1,6,VDD*%
%TO.N,VDD3V3*%
X88800002Y-40700012D03*
%TO.P,U1,7,VREGIN*%
X89300002Y-40700012D03*
D25*
%TO.P,U1,8,VBUS*%
%TO.N,VCCUSB*%
X90250002Y-39750012D03*
%TO.P,U1,9,~{RST}*%
%TO.N,Net-(R1-Pad1)*%
X90250002Y-39250012D03*
%TO.P,U1,10,NC*%
%TO.N,unconnected-(U1-Pad10)*%
X90250002Y-38750012D03*
%TO.P,U1,11,~{SUSPEND}*%
%TO.N,unconnected-(U1-Pad11)*%
X90250002Y-38250012D03*
%TO.P,U1,12,SUSPEND*%
%TO.N,unconnected-(U1-Pad12)*%
X90250002Y-37750012D03*
%TO.P,U1,13,CHREN*%
%TO.N,unconnected-(U1-Pad13)*%
X90250002Y-37250012D03*
%TO.P,U1,14,CHR1*%
%TO.N,unconnected-(U1-Pad14)*%
X90250002Y-36750012D03*
D24*
%TO.P,U1,15,CHR0*%
%TO.N,unconnected-(U1-Pad15)*%
X89300002Y-35800012D03*
%TO.P,U1,16,~{WAKEUP}/GPIO.3*%
%TO.N,unconnected-(U1-Pad16)*%
X88800002Y-35800012D03*
%TO.P,U1,17,RS485/GPIO.2*%
%TO.N,unconnected-(U1-Pad17)*%
X88300002Y-35800012D03*
%TO.P,U1,18,~{RXT}/GPIO.1*%
%TO.N,unconnected-(U1-Pad18)*%
X87800002Y-35800012D03*
%TO.P,U1,19,~{TXT}/GPIO.0*%
%TO.N,unconnected-(U1-Pad19)*%
X87300002Y-35800012D03*
%TO.P,U1,20,GPIO.6*%
%TO.N,unconnected-(U1-Pad20)*%
X86800002Y-35800012D03*
%TO.P,U1,21,GPIO.5*%
%TO.N,unconnected-(U1-Pad21)*%
X86300002Y-35800012D03*
D25*
%TO.P,U1,22,GPIO.4*%
%TO.N,unconnected-(U1-Pad22)*%
X85350002Y-36750012D03*
%TO.P,U1,23,~{CTS}*%
%TO.N,unconnected-(U1-Pad23)*%
X85350002Y-37250012D03*
%TO.P,U1,24,~{RTS}*%
%TO.N,/RTS*%
X85350002Y-37750012D03*
%TO.P,U1,25,RXD*%
%TO.N,Net-(R7-Pad2)*%
X85350002Y-38250012D03*
%TO.P,U1,26,TXD*%
%TO.N,Net-(R8-Pad2)*%
X85350002Y-38750012D03*
%TO.P,U1,27,~{DSR}*%
%TO.N,unconnected-(U1-Pad27)*%
X85350002Y-39250012D03*
%TO.P,U1,28,~{DTR}*%
%TO.N,/DTR*%
X85350002Y-39750012D03*
D26*
%TO.P,U1,29,GND*%
%TO.N,Earth*%
X87800002Y-38250012D03*
%TD*%
D19*
%TO.P,R21,1*%
%TO.N,Net-(D9-Pad2)*%
X71100003Y-56237500D03*
%TO.P,R21,2*%
%TO.N,Net-(JP1-Pad2)*%
X71100003Y-58062500D03*
%TD*%
D11*
%TO.P,R6,1*%
%TO.N,/GPIO2*%
X42787500Y-38400000D03*
%TO.P,R6,2*%
%TO.N,Earth*%
X44612500Y-38400000D03*
%TD*%
D15*
%TO.P,J3,1,Pin_1*%
%TO.N,Earth*%
X48200000Y-27500000D03*
D16*
%TO.P,J3,2,Pin_2*%
%TO.N,VDD3V3*%
X50740000Y-27500000D03*
%TO.P,J3,3,Pin_3*%
%TO.N,/SCL*%
X53280000Y-27500000D03*
%TO.P,J3,4,Pin_4*%
%TO.N,/SDA*%
X55820000Y-27500000D03*
%TD*%
D19*
%TO.P,R18,1*%
%TO.N,Net-(D6-Pad2)*%
X64950009Y-56237493D03*
%TO.P,R18,2*%
%TO.N,Net-(JP1-Pad2)*%
X64950009Y-58062493D03*
%TD*%
D22*
%TO.P,RST2,1,1*%
%TO.N,/GPIO0*%
X95300009Y-37000002D03*
%TO.P,RST2,2,2*%
%TO.N,Earth*%
X98700009Y-37000002D03*
%TD*%
D27*
%TO.P,C2,1*%
%TO.N,Earth*%
X78762500Y-49300000D03*
%TO.P,C2,2*%
%TO.N,VDD3V3*%
X80837500Y-49300000D03*
%TD*%
D28*
%TO.P,U2,1,GND*%
%TO.N,Earth*%
X85149990Y-58949990D03*
%TO.P,U2,2,VO*%
%TO.N,VDD3V3*%
X87449990Y-58949990D03*
D29*
X87449990Y-52649990D03*
D28*
%TO.P,U2,3,VI*%
%TO.N,/Vin*%
X89749990Y-58949990D03*
%TD*%
D10*
%TO.P,D5,1,K*%
%TO.N,/SDA*%
X62900003Y-52575000D03*
%TO.P,D5,2,A*%
%TO.N,Net-(D5-Pad2)*%
X62900003Y-54625000D03*
%TD*%
D19*
%TO.P,R14,1*%
%TO.N,/DTR*%
X82450000Y-38837500D03*
%TO.P,R14,2*%
%TO.N,Net-(Q1-Pad2)*%
X82450000Y-40662500D03*
%TD*%
%TO.P,R19,1*%
%TO.N,Net-(D7-Pad2)*%
X67000003Y-56237500D03*
%TO.P,R19,2*%
%TO.N,Net-(JP1-Pad2)*%
X67000003Y-58062500D03*
%TD*%
D30*
%TO.P,U4,1,GND*%
%TO.N,Earth*%
X21744991Y-52499988D03*
%TO.P,U4,2,VDD*%
%TO.N,VDDMICRO*%
X23014991Y-52499988D03*
%TO.P,U4,3,EN*%
%TO.N,/EN*%
X24284991Y-52499988D03*
%TO.P,U4,4,SENSOR_VP*%
%TO.N,/GPIO36*%
X25554991Y-52499988D03*
%TO.P,U4,5,SENSOR_VN*%
%TO.N,/GPIO39*%
X26824991Y-52499988D03*
%TO.P,U4,6,IO34*%
%TO.N,/GPIO34*%
X28094991Y-52499988D03*
%TO.P,U4,7,IO35*%
%TO.N,/GPIO35*%
X29364991Y-52499988D03*
%TO.P,U4,8,IO32*%
%TO.N,/GPIO32*%
X30634991Y-52499988D03*
%TO.P,U4,9,IO33*%
%TO.N,/GPIO33*%
X31904991Y-52499988D03*
%TO.P,U4,10,IO25*%
%TO.N,/GPIO25*%
X33174991Y-52499988D03*
%TO.P,U4,11,IO26*%
%TO.N,/GPIO26*%
X34444991Y-52499988D03*
%TO.P,U4,12,IO27*%
%TO.N,/GPIO27*%
X35714991Y-52499988D03*
%TO.P,U4,13,IO14*%
%TO.N,/GPIO14*%
X36984991Y-52499988D03*
%TO.P,U4,14,IO12*%
%TO.N,/GPIO12*%
X38254991Y-52499988D03*
D31*
%TO.P,U4,15,GND*%
%TO.N,Earth*%
X39254991Y-49714988D03*
%TO.P,U4,16,IO13*%
%TO.N,/GPIO13*%
X39254991Y-48444988D03*
%TO.P,U4,17,SHD/SD2*%
%TO.N,unconnected-(U4-Pad17)*%
X39254991Y-47174988D03*
%TO.P,U4,18,SWP/SD3*%
%TO.N,unconnected-(U4-Pad18)*%
X39254991Y-45904988D03*
%TO.P,U4,19,SCS/CMD*%
%TO.N,unconnected-(U4-Pad19)*%
X39254991Y-44634988D03*
%TO.P,U4,20,SCK/CLK*%
%TO.N,unconnected-(U4-Pad20)*%
X39254991Y-43364988D03*
%TO.P,U4,21,SDO/SD0*%
%TO.N,unconnected-(U4-Pad21)*%
X39254991Y-42094988D03*
%TO.P,U4,22,SDI/SD1*%
%TO.N,unconnected-(U4-Pad22)*%
X39254991Y-40824988D03*
%TO.P,U4,23,IO15*%
%TO.N,/GPIO15*%
X39254991Y-39554988D03*
%TO.P,U4,24,IO2*%
%TO.N,/GPIO2*%
X39254991Y-38284988D03*
D30*
%TO.P,U4,25,IO0*%
%TO.N,/GPIO0*%
X38254991Y-35499988D03*
%TO.P,U4,26,IO4*%
%TO.N,/GPIO4*%
X36984991Y-35499988D03*
%TO.P,U4,27,IO16*%
%TO.N,/RX2*%
X35714991Y-35499988D03*
%TO.P,U4,28,IO17*%
%TO.N,/TX2*%
X34444991Y-35499988D03*
%TO.P,U4,29,IO5*%
%TO.N,/CS*%
X33174991Y-35499988D03*
%TO.P,U4,30,IO18*%
%TO.N,/SCK*%
X31904991Y-35499988D03*
%TO.P,U4,31,IO19*%
%TO.N,/MISO*%
X30634991Y-35499988D03*
%TO.P,U4,32,NC*%
%TO.N,unconnected-(U4-Pad32)*%
X29364991Y-35499988D03*
%TO.P,U4,33,IO21*%
%TO.N,/SDA*%
X28094991Y-35499988D03*
%TO.P,U4,34,RXD0/IO3*%
%TO.N,/RX0*%
X26824991Y-35499988D03*
%TO.P,U4,35,TXD0/IO1*%
%TO.N,/TX0*%
X25554991Y-35499988D03*
%TO.P,U4,36,IO22*%
%TO.N,/SCL*%
X24284991Y-35499988D03*
%TO.P,U4,37,IO23*%
%TO.N,/MOSI*%
X23014991Y-35499988D03*
%TO.P,U4,38,GND*%
%TO.N,Earth*%
X21744991Y-35499988D03*
D32*
%TO.P,U4,39,GND*%
X29244991Y-44999988D03*
%TD*%
D15*
%TO.P,J11,1,Pin_1*%
%TO.N,VDD3V3*%
X90650000Y-66400000D03*
D16*
%TO.P,J11,2,Pin_2*%
%TO.N,VDDMICRO*%
X93190000Y-66400000D03*
%TD*%
D19*
%TO.P,R9,1*%
%TO.N,/GPIO0*%
X86900000Y-44387500D03*
%TO.P,R9,2*%
%TO.N,VDD3V3*%
X86900000Y-46212500D03*
%TD*%
D15*
%TO.P,J10,1,Pin_1*%
%TO.N,Earth*%
X27199996Y-66375001D03*
D16*
%TO.P,J10,2,Pin_2*%
%TO.N,/GPIO36*%
X29739996Y-66375001D03*
%TO.P,J10,3,Pin_3*%
%TO.N,VDD3V3*%
X32279996Y-66375001D03*
%TD*%
D10*
%TO.P,D1,1,K*%
%TO.N,/MOSI*%
X58800009Y-52575002D03*
%TO.P,D1,2,A*%
%TO.N,Net-(D1-Pad2)*%
X58800009Y-54625002D03*
%TD*%
D15*
%TO.P,JP1,1,A*%
%TO.N,VDD3V3*%
X73900000Y-36900000D03*
D16*
%TO.P,JP1,2,B*%
%TO.N,Net-(JP1-Pad2)*%
X73900000Y-39440000D03*
%TD*%
D11*
%TO.P,R8,1*%
%TO.N,/RX0*%
X42787500Y-41750000D03*
%TO.P,R8,2*%
%TO.N,Net-(R8-Pad2)*%
X44612500Y-41750000D03*
%TD*%
D19*
%TO.P,R1,1*%
%TO.N,Net-(R1-Pad1)*%
X85100000Y-44387500D03*
%TO.P,R1,2*%
%TO.N,VDD3V3*%
X85100000Y-46212500D03*
%TD*%
D15*
%TO.P,J8,1,Pin_1*%
%TO.N,Earth*%
X79300000Y-66350000D03*
D16*
%TO.P,J8,2,Pin_2*%
%TO.N,VDD3V3*%
X81840000Y-66350000D03*
%TO.P,J8,3,Pin_3*%
X84380000Y-66350000D03*
%TO.P,J8,4,Pin_4*%
%TO.N,/Vin*%
X86920000Y-66350000D03*
%TD*%
D33*
%TO.P,RST3,1,1*%
%TO.N,/GPIO2*%
X68500000Y-33300000D03*
%TO.P,RST3,2,2*%
%TO.N,VDD3V3*%
X68500000Y-25500000D03*
%TD*%
D19*
%TO.P,R20,1*%
%TO.N,Net-(D8-Pad2)*%
X69050003Y-56225000D03*
%TO.P,R20,2*%
%TO.N,Net-(JP1-Pad2)*%
X69050003Y-58050000D03*
%TD*%
%TO.P,R16,1*%
%TO.N,Net-(D4-Pad2)*%
X60849992Y-56287506D03*
%TO.P,R16,2*%
%TO.N,Net-(JP1-Pad2)*%
X60849992Y-58112506D03*
%TD*%
D34*
%TO.P,J1,1,VBUS*%
%TO.N,VCCUSB*%
X92425007Y-46500012D03*
%TO.P,J1,2,D-*%
%TO.N,Net-(J1-Pad2)*%
X92425007Y-45700012D03*
%TO.P,J1,3,D+*%
%TO.N,Net-(J1-Pad3)*%
X92425007Y-44900012D03*
%TO.P,J1,4,ID*%
%TO.N,OTG_ID*%
X92425007Y-44100012D03*
%TO.P,J1,5,GND*%
%TO.N,Earth*%
X92425007Y-43300012D03*
D35*
%TO.P,J1,6,Shield*%
X97975007Y-40450012D03*
X97975007Y-49350012D03*
X92525007Y-49350012D03*
X92525007Y-40450012D03*
%TD*%
D10*
%TO.P,D9,1,K*%
%TO.N,/TX2*%
X71100010Y-52574994D03*
%TO.P,D9,2,A*%
%TO.N,Net-(D9-Pad2)*%
X71100010Y-54624994D03*
%TD*%
D33*
%TO.P,RST4,1,1*%
%TO.N,/GPIO4*%
X76250000Y-33250000D03*
%TO.P,RST4,2,2*%
%TO.N,VDD3V3*%
X76250000Y-25450000D03*
%TD*%
D36*
%TO.N,Earth*%
X87850000Y-39550000D03*
X78700000Y-56700000D03*
X87850000Y-37000000D03*
X25999999Y-42850003D03*
X43350002Y-22850000D03*
X26000000Y-44650000D03*
X78700000Y-55100000D03*
X93900000Y-40400000D03*
X26000000Y-45250000D03*
X88950000Y-39550000D03*
X96700000Y-40400000D03*
X93900000Y-49400000D03*
X97700000Y-37100000D03*
X78150000Y-50600000D03*
X26000000Y-44050000D03*
X89000000Y-38250000D03*
X78700000Y-55950000D03*
X86600000Y-37000000D03*
X96600000Y-49300000D03*
X92600000Y-57900000D03*
X78800000Y-50600000D03*
X43350002Y-25400000D03*
X37400000Y-49250000D03*
X26000000Y-46550000D03*
X85149995Y-60649993D03*
X46400000Y-39250000D03*
X86600000Y-39550000D03*
X86600000Y-38250000D03*
X89000000Y-37000000D03*
X26000000Y-43450000D03*
X26000000Y-45900000D03*
X87850000Y-38250000D03*
X26000000Y-47200000D03*
%TO.N,VDD3V3*%
X73200006Y-61800003D03*
X90200000Y-41500000D03*
X85100008Y-47500007D03*
X84749996Y-51950010D03*
X72300000Y-25500000D03*
X56399989Y-51299999D03*
%TO.N,VCCUSB*%
X90400835Y-46503387D03*
X96400010Y-56199989D03*
X90599997Y-42599991D03*
%TO.N,Net-(J1-Pad2)*%
X88700000Y-42299992D03*
X90200000Y-45700000D03*
%TO.N,Net-(R1-Pad1)*%
X85100008Y-43199990D03*
X91600000Y-37900000D03*
%TO.N,/EN*%
X78999994Y-41199994D03*
X54400000Y-48800000D03*
X57700012Y-42925975D03*
X24300000Y-54450005D03*
%TO.N,/TX0*%
X45149999Y-53250008D03*
X25600000Y-37149989D03*
X54999992Y-54499993D03*
X41800000Y-43450000D03*
%TO.N,/CS*%
X39550010Y-26599998D03*
X67699992Y-40850007D03*
X49400003Y-30099991D03*
X41750005Y-40099996D03*
X33149997Y-37149989D03*
X55862703Y-39587297D03*
%TO.N,/RX0*%
X45849997Y-52525498D03*
X55799990Y-53599994D03*
X26850010Y-37149989D03*
X41750000Y-41800000D03*
%TO.N,/RTS*%
X76350012Y-40450008D03*
X84150000Y-37300000D03*
%TO.N,Net-(R7-Pad2)*%
X48400000Y-43400000D03*
X83450000Y-37600000D03*
%TO.N,Net-(Q1-Pad2)*%
X80850003Y-44849999D03*
X83400000Y-40700000D03*
%TO.N,/GPIO0*%
X85175496Y-41899992D03*
X85200000Y-34000008D03*
X63962305Y-33437703D03*
X79950005Y-39999996D03*
X79999992Y-35174504D03*
X39850009Y-35449993D03*
%TO.N,Net-(R8-Pad2)*%
X45650000Y-41800000D03*
X83554874Y-38689369D03*
%TO.N,/Vin*%
X82050001Y-60700006D03*
X62100003Y-22950000D03*
X62100003Y-25100001D03*
X82050000Y-46000000D03*
%TO.N,/SCK*%
X67050006Y-41599993D03*
X42399991Y-27299996D03*
X57150000Y-41650000D03*
X45249998Y-28999993D03*
%TO.N,/MISO*%
X53600000Y-44800000D03*
X51950000Y-36250000D03*
X30650002Y-33900008D03*
X36649990Y-37971908D03*
%TO.N,/MOSI*%
X51050012Y-37100002D03*
X36649990Y-38799999D03*
X52900000Y-44800000D03*
%TO.N,/SCL*%
X32949998Y-29550004D03*
X30400000Y-30299990D03*
X36000000Y-29600000D03*
%TO.N,/SDA*%
X33349997Y-31800013D03*
X30899989Y-31800013D03*
%TO.N,/GPIO2*%
X41450000Y-38300000D03*
X66000000Y-34300000D03*
%TO.N,/GPIO15*%
X36449991Y-50349988D03*
X54599992Y-55899990D03*
X43899988Y-53350008D03*
%TO.N,/GPIO4*%
X72649994Y-33249997D03*
X60949992Y-28699993D03*
X37050000Y-33749996D03*
X58450000Y-34400000D03*
%TO.N,/RX2*%
X61249992Y-33900008D03*
X49449990Y-33000010D03*
%TO.N,/TX2*%
X49500003Y-31499988D03*
X60300000Y-31500000D03*
%TO.N,Net-(JP1-Pad2)*%
X77499997Y-45149999D03*
X75900000Y-58100000D03*
%TO.N,VDDMICRO*%
X26150011Y-60000007D03*
%TD*%
D37*
%TO.N,Earth*%
X43350000Y-25400000D02*
X43350000Y-22850000D01*
X97975007Y-51575007D02*
X97975007Y-49350012D01*
X87300000Y-40700000D02*
X87300000Y-38750000D01*
X96700000Y-40400000D02*
X97925000Y-40400000D01*
X37865000Y-49715000D02*
X39255000Y-49715000D01*
X98600000Y-37100000D02*
X98700000Y-37000000D01*
X97924995Y-49300000D02*
X96600000Y-49300000D01*
X37400000Y-49250000D02*
X37865000Y-49715000D01*
X24150000Y-47200000D02*
X26000000Y-47200000D01*
X21745000Y-27555000D02*
X22025000Y-27275000D01*
X92575000Y-49400000D02*
X92525000Y-49350000D01*
X93900000Y-40400000D02*
X92575000Y-40400000D01*
X92425000Y-43300000D02*
X92425000Y-40550000D01*
X21125000Y-62600000D02*
X21125000Y-60062500D01*
X92425000Y-40550000D02*
X92525000Y-40450000D01*
X45450000Y-38300000D02*
X44612500Y-38300000D01*
X21745000Y-35500000D02*
X21745000Y-27555000D01*
X97925000Y-40400000D02*
X97975000Y-40450000D01*
X21745000Y-52500000D02*
X21745000Y-55355000D01*
X46400000Y-39250000D02*
X45450000Y-38300000D01*
X21125000Y-60062500D02*
X21187500Y-60000000D01*
X93900000Y-49400000D02*
X92575000Y-49400000D01*
X87300000Y-38750000D02*
X87800000Y-38250000D01*
X92600000Y-57900000D02*
X92600000Y-56775000D01*
X85150000Y-58950000D02*
X85150000Y-60650000D01*
X21745000Y-55355000D02*
X21187500Y-55912500D01*
X98700009Y-53999994D02*
X98700000Y-53999985D01*
X97700000Y-37100000D02*
X98600000Y-37100000D01*
X98700000Y-52300000D02*
X97975007Y-51575007D01*
X98700000Y-53999985D02*
X98700000Y-52300000D01*
X44612500Y-36700000D02*
X44612500Y-38300000D01*
X21745000Y-49605000D02*
X24150000Y-47200000D01*
X21745000Y-52500000D02*
X21745000Y-49605000D01*
X92575000Y-40400000D02*
X92525000Y-40450000D01*
X21187500Y-55912500D02*
X21187500Y-60000000D01*
%TO.N,VDD3V3*%
X48500000Y-41500000D02*
X47250000Y-41500000D01*
D38*
X87449990Y-52650009D02*
X87449990Y-58949996D01*
D37*
X85100000Y-46212500D02*
X86900000Y-46212500D01*
X47250000Y-40850000D02*
X46450000Y-40050000D01*
X90000012Y-40700012D02*
X90200000Y-40900000D01*
X89300002Y-40700012D02*
X90000012Y-40700012D01*
X90200000Y-40900000D02*
X90200000Y-41500000D01*
X79000000Y-61800000D02*
X73200000Y-61800000D01*
X85100000Y-46212500D02*
X85100000Y-47500000D01*
X89900000Y-68650000D02*
X90650000Y-67900000D01*
X50000000Y-43000000D02*
X48500000Y-41500000D01*
X81840000Y-66350000D02*
X81840000Y-64640000D01*
X24600000Y-64212500D02*
X24600000Y-66500000D01*
X76000000Y-25500000D02*
X76150000Y-25350000D01*
D39*
X87449990Y-60850010D02*
X87449990Y-58949996D01*
X81839994Y-66350007D02*
X81839994Y-67909999D01*
D37*
X90650000Y-67900000D02*
X90650000Y-66400000D01*
X44612500Y-43500000D02*
X45950000Y-43500000D01*
X50000000Y-46714282D02*
X50000000Y-43000000D01*
D39*
X87449990Y-60850010D02*
X87449990Y-61400004D01*
D37*
X88800002Y-40700012D02*
X89300002Y-40700012D01*
X54585718Y-51300000D02*
X50000000Y-46714282D01*
D39*
X81050003Y-68699990D02*
X32799990Y-68699990D01*
D37*
X24600000Y-66500000D02*
X25880000Y-67780000D01*
X84380000Y-66350000D02*
X84380000Y-68230000D01*
X72300000Y-25500000D02*
X68500000Y-25500000D01*
X72300000Y-25500000D02*
X76000000Y-25500000D01*
X81840000Y-64640000D02*
X79000000Y-61800000D01*
X56400000Y-51300000D02*
X54585718Y-51300000D01*
D39*
X32280000Y-68180000D02*
X32280000Y-67780000D01*
X32280000Y-67780000D02*
X32280000Y-66375000D01*
X84379994Y-66350007D02*
X81839994Y-66350007D01*
D37*
X84800000Y-68650000D02*
X89900000Y-68650000D01*
X47250000Y-41500000D02*
X47250000Y-40850000D01*
X84380000Y-68230000D02*
X84800000Y-68650000D01*
D39*
X87449990Y-61400004D02*
X84379994Y-64470001D01*
D37*
X25880000Y-67780000D02*
X32280000Y-67780000D01*
X45950000Y-43500000D02*
X47250000Y-42200000D01*
D39*
X81839994Y-67909999D02*
X81050003Y-68699990D01*
X84379994Y-64470001D02*
X84379994Y-66350007D01*
D37*
X47250000Y-42200000D02*
X47250000Y-41500000D01*
X46450000Y-40050000D02*
X44612500Y-40050000D01*
D39*
X32799990Y-68699990D02*
X32280000Y-68180000D01*
D37*
%TO.N,Net-(D2-Pad2)*%
X23437501Y-62337500D02*
X23174999Y-62600002D01*
X23387500Y-62387500D02*
X23175000Y-62600000D01*
X24800000Y-62337500D02*
X23437501Y-62337500D01*
%TO.N,Net-(J1-Pad3)*%
X87800002Y-40700012D02*
X87800002Y-42600002D01*
X87800002Y-42600002D02*
X90100000Y-44900000D01*
X90100000Y-44900000D02*
X92425000Y-44900000D01*
%TO.N,VCCUSB*%
X90950012Y-39750012D02*
X91100000Y-39900000D01*
X91100000Y-41500000D02*
X90600000Y-42000000D01*
X90250002Y-39750012D02*
X90950012Y-39750012D01*
X91100000Y-39900000D02*
X91100000Y-41500000D01*
X92425000Y-46500000D02*
X90404221Y-46500000D01*
X96400000Y-56200000D02*
X96400000Y-58299996D01*
X90404221Y-46500000D02*
X90400844Y-46503377D01*
X90600000Y-42600000D02*
X90600000Y-42000000D01*
X96400000Y-58299996D02*
X96400010Y-58300006D01*
%TO.N,Net-(J1-Pad2)*%
X88300002Y-40700012D02*
X88300002Y-41900002D01*
X90200000Y-45700000D02*
X92425000Y-45700000D01*
X88300002Y-41900002D02*
X88700000Y-42300000D01*
%TO.N,Net-(R1-Pad1)*%
X91600000Y-37900000D02*
X91600000Y-39000501D01*
X91600000Y-39000501D02*
X91350489Y-39250012D01*
X91350489Y-39250012D02*
X90250002Y-39250012D01*
X85100000Y-44387500D02*
X85100000Y-43200000D01*
%TO.N,/GPIO33*%
X35300000Y-60650000D02*
X44000000Y-60650000D01*
X44000000Y-60650000D02*
X47510000Y-64160000D01*
X47510000Y-64160000D02*
X47510000Y-66375000D01*
X31905000Y-52500000D02*
X31905000Y-57255000D01*
X31905000Y-57255000D02*
X35300000Y-60650000D01*
%TO.N,/GPIO25*%
X36450000Y-59900000D02*
X45450000Y-59900000D01*
X45450000Y-59900000D02*
X50050000Y-64500000D01*
X50050000Y-64500000D02*
X50050000Y-66375000D01*
X33175000Y-52500000D02*
X33175000Y-56625000D01*
X33175000Y-56625000D02*
X36450000Y-59900000D01*
%TO.N,/GPIO26*%
X47600000Y-59250000D02*
X52600000Y-64250000D01*
X34445000Y-56195000D02*
X37500000Y-59250000D01*
X37500000Y-59250000D02*
X47600000Y-59250000D01*
X52600000Y-64250000D02*
X52590000Y-64260000D01*
X52590000Y-64260000D02*
X52590000Y-66375000D01*
X34445000Y-52500000D02*
X34445000Y-56195000D01*
%TO.N,/EN*%
X79900000Y-41512500D02*
X79912500Y-41500000D01*
X79912500Y-41500000D02*
X82300000Y-41500000D01*
X94399994Y-53999994D02*
X93700000Y-53300000D01*
X24300000Y-52515000D02*
X24285000Y-52500000D01*
X83300000Y-42500000D02*
X83300000Y-49150000D01*
X92600000Y-52300000D02*
X92600000Y-53300000D01*
X79312500Y-41512500D02*
X79000000Y-41200000D01*
X84900000Y-50750000D02*
X91050000Y-50750000D01*
X92600000Y-53300000D02*
X92600000Y-54700000D01*
X91050000Y-50750000D02*
X92600000Y-52300000D01*
X24300000Y-55587500D02*
X24300000Y-54450005D01*
X79900000Y-41512500D02*
X79312500Y-41512500D01*
X83300000Y-49150000D02*
X84900000Y-50750000D01*
X24300000Y-54450000D02*
X24300000Y-52515000D01*
X93700000Y-53300000D02*
X92600000Y-53300000D01*
X95300009Y-53999994D02*
X94399994Y-53999994D01*
X57700000Y-42925980D02*
X55674020Y-42925980D01*
X82300000Y-41500000D02*
X83300000Y-42500000D01*
X55674020Y-42925980D02*
X54400000Y-44200000D01*
X54400000Y-44200000D02*
X54400000Y-48800000D01*
%TO.N,/TX0*%
X42787500Y-45200000D02*
X42787500Y-43500000D01*
X41800000Y-43450000D02*
X41850000Y-43500000D01*
X53750008Y-53250008D02*
X55000000Y-54500000D01*
X45149999Y-53250008D02*
X53750008Y-53250008D01*
X41850000Y-43500000D02*
X42787500Y-43500000D01*
X25600000Y-37150000D02*
X25600000Y-35545000D01*
X25600000Y-35545000D02*
X25555000Y-35500000D01*
%TO.N,/CS*%
X38050000Y-25100000D02*
X35450000Y-25100000D01*
X68350007Y-40850007D02*
X69625000Y-42125000D01*
X67699992Y-40850007D02*
X68350007Y-40850007D01*
X69625000Y-48000000D02*
X69625000Y-50675000D01*
X54200480Y-37925078D02*
X55862701Y-39587299D01*
X69625000Y-42125000D02*
X69625000Y-48000000D01*
X69625000Y-50675000D02*
X69050003Y-51249997D01*
X54200480Y-34200480D02*
X54200480Y-37925078D01*
X39550000Y-26600000D02*
X38050000Y-25100000D01*
X42737504Y-40099996D02*
X42787500Y-40050000D01*
X41750005Y-40099996D02*
X42737504Y-40099996D01*
X50150000Y-30150000D02*
X54200480Y-34200480D01*
X49450000Y-30150000D02*
X50150000Y-30150000D01*
X33150000Y-37150000D02*
X33150000Y-35525000D01*
X34725000Y-25825000D02*
X34725000Y-27275000D01*
X49400000Y-30100000D02*
X49450000Y-30150000D01*
X33150000Y-35525000D02*
X33175000Y-35500000D01*
X69050003Y-51249997D02*
X69050003Y-52575000D01*
X35450000Y-25100000D02*
X34725000Y-25825000D01*
%TO.N,/RX0*%
X41750000Y-41800000D02*
X42737500Y-41800000D01*
X26850000Y-35525000D02*
X26825000Y-35500000D01*
X26850000Y-37150000D02*
X26850000Y-35525000D01*
X42737500Y-41800000D02*
X42787500Y-41750000D01*
X45849997Y-52525498D02*
X54725498Y-52525498D01*
X54725498Y-52525498D02*
X55800000Y-53600000D01*
%TO.N,/RTS*%
X84150000Y-37300000D02*
X84600000Y-37750000D01*
X77450000Y-42850000D02*
X77450000Y-40447500D01*
X76352500Y-40447500D02*
X76350000Y-40450000D01*
X78950000Y-43387500D02*
X77987500Y-43387500D01*
X84600000Y-37750000D02*
X85350000Y-37750000D01*
X77450000Y-40447500D02*
X76352500Y-40447500D01*
X77987500Y-43387500D02*
X77450000Y-42850000D01*
%TO.N,/DTR*%
X83252500Y-39152500D02*
X83850000Y-39750000D01*
X82450000Y-39152500D02*
X83252500Y-39152500D01*
X80850000Y-36812500D02*
X81812500Y-36812500D01*
X83850000Y-39750000D02*
X85350000Y-39750000D01*
X81812500Y-36812500D02*
X82450000Y-37450000D01*
X82450000Y-37450000D02*
X82450000Y-39152500D01*
%TO.N,Net-(R7-Pad2)*%
X47650000Y-45200000D02*
X48400000Y-44450000D01*
X48400000Y-44450000D02*
X48400000Y-43400000D01*
X83450000Y-37600000D02*
X84100000Y-38250000D01*
X44612500Y-45200000D02*
X47650000Y-45200000D01*
X84100000Y-38250000D02*
X85350000Y-38250000D01*
%TO.N,Net-(Q1-Pad2)*%
X82450000Y-40662500D02*
X83362500Y-40662500D01*
X80850000Y-43387500D02*
X80850000Y-44850000D01*
X83362500Y-40662500D02*
X83400000Y-40700000D01*
%TO.N,Net-(Q2-Pad2)*%
X77900000Y-36800000D02*
X78937500Y-36800000D01*
X78937500Y-36800000D02*
X78950000Y-36812500D01*
X77450000Y-39252500D02*
X77450000Y-37250000D01*
X77450000Y-37250000D02*
X77900000Y-36800000D01*
%TO.N,/GPIO0*%
X79999992Y-35174504D02*
X65699102Y-35174504D01*
X94000000Y-37000000D02*
X95300000Y-37000000D01*
X86900000Y-44387500D02*
X86900000Y-43600000D01*
X86900000Y-43600000D02*
X85200000Y-41900000D01*
X80000000Y-35174500D02*
X80000000Y-34500000D01*
X39800000Y-35500000D02*
X38255000Y-35500000D01*
X80500000Y-34000000D02*
X85200000Y-34000000D01*
X79950000Y-40000000D02*
X79950000Y-38737500D01*
X91000000Y-34000000D02*
X94000000Y-37000000D01*
X85200000Y-34000000D02*
X91000000Y-34000000D01*
X85200000Y-41900000D02*
X85175500Y-41900000D01*
X39850000Y-35450000D02*
X39800000Y-35500000D01*
X65699102Y-35174504D02*
X63962299Y-33437701D01*
X79950000Y-38737500D02*
X79900000Y-38687500D01*
X80000000Y-34500000D02*
X80500000Y-34000000D01*
%TO.N,Net-(R8-Pad2)*%
X45650000Y-41800000D02*
X44662500Y-41800000D01*
X44662500Y-41800000D02*
X44612500Y-41750000D01*
X83615505Y-38750000D02*
X85350000Y-38750000D01*
X83554874Y-38689369D02*
X83615505Y-38750000D01*
D39*
%TO.N,/Vin*%
X89750011Y-61000011D02*
X90250000Y-61500000D01*
D37*
X69174024Y-35624024D02*
X65366408Y-35624024D01*
X91200000Y-61600000D02*
X91100000Y-61500000D01*
X61200000Y-22050000D02*
X27400000Y-22050000D01*
X24565000Y-24915000D02*
X24565000Y-27275000D01*
X65366408Y-35624024D02*
X62100000Y-32357616D01*
X88650000Y-63200000D02*
X90200000Y-63200000D01*
D39*
X89750011Y-60000007D02*
X89750011Y-61000011D01*
D37*
X82050000Y-46000000D02*
X76700000Y-46000000D01*
X62100000Y-32357616D02*
X62100000Y-25100000D01*
X86920000Y-66350000D02*
X86920000Y-64930000D01*
D39*
X91100000Y-61500000D02*
X92650000Y-61500000D01*
D37*
X24550000Y-24900000D02*
X24565000Y-24915000D01*
D39*
X92650000Y-61500000D02*
X93450006Y-62300006D01*
X90250000Y-61500000D02*
X91100000Y-61500000D01*
D37*
X82012511Y-58549997D02*
X82012511Y-60662490D01*
X71200000Y-37650000D02*
X69174024Y-35624024D01*
X62100000Y-22950000D02*
X61200000Y-22050000D01*
X91200000Y-62200000D02*
X91200000Y-61600000D01*
X82012500Y-60662500D02*
X82050000Y-60700000D01*
X76700000Y-46000000D02*
X71200000Y-40500000D01*
X90200000Y-63200000D02*
X91200000Y-62200000D01*
X71200000Y-40500000D02*
X71200000Y-37650000D01*
D39*
X93450006Y-62300006D02*
X96400010Y-62300006D01*
D37*
X86920000Y-64930000D02*
X88650000Y-63200000D01*
X89750000Y-58950000D02*
X89750000Y-60000000D01*
X27400000Y-22050000D02*
X24550000Y-24900000D01*
%TO.N,/SCK*%
X32800000Y-24350000D02*
X39450000Y-24350000D01*
X32185000Y-30515000D02*
X31905000Y-30795000D01*
X57150000Y-41650000D02*
X56900788Y-41650000D01*
X67085000Y-41634987D02*
X67085000Y-48000000D01*
X32185000Y-24965000D02*
X32800000Y-24350000D01*
X47196882Y-30946877D02*
X45249998Y-28999993D01*
X67050006Y-41599993D02*
X67085000Y-41634987D01*
X31905000Y-30795000D02*
X31905000Y-35500000D01*
X56900788Y-41650000D02*
X53750960Y-38500172D01*
X32185000Y-27275000D02*
X32185000Y-24965000D01*
X39450000Y-24350000D02*
X42400000Y-27300000D01*
X67085000Y-48000000D02*
X67085000Y-52489998D01*
X53750960Y-38500172D02*
X53750960Y-34750960D01*
X53750960Y-34750960D02*
X49946877Y-30946877D01*
X49946877Y-30946877D02*
X47196882Y-30946877D01*
X32185000Y-27275000D02*
X32185000Y-30515000D01*
X67085000Y-52489998D02*
X67000008Y-52574990D01*
%TO.N,/MISO*%
X52550000Y-36250000D02*
X51950000Y-36250000D01*
X64545000Y-48000000D02*
X64545000Y-50545000D01*
X53600000Y-44800000D02*
X53600000Y-38984930D01*
X53301440Y-37001440D02*
X52550000Y-36250000D01*
X65000000Y-52525003D02*
X64950003Y-52575000D01*
X30635000Y-33915000D02*
X30650000Y-33900000D01*
X53600000Y-38984930D02*
X53301440Y-38686370D01*
X31450000Y-37900000D02*
X31521897Y-37971897D01*
X65000000Y-51000000D02*
X65000000Y-52525003D01*
X30635000Y-35500000D02*
X30635000Y-37085000D01*
X53301440Y-38686370D02*
X53301440Y-37001440D01*
X30635000Y-37085000D02*
X31450000Y-37900000D01*
X31521897Y-37971897D02*
X36650000Y-37971897D01*
X64545000Y-50545000D02*
X65000000Y-51000000D01*
X30635000Y-35500000D02*
X30635000Y-33915000D01*
%TO.N,/MOSI*%
X29645000Y-27275000D02*
X29645000Y-29095000D01*
X56925000Y-49525000D02*
X58800009Y-51400009D01*
X23015000Y-32785000D02*
X23015000Y-35500000D01*
X27550000Y-31200000D02*
X24600000Y-31200000D01*
X56925000Y-48000000D02*
X56925000Y-49525000D01*
X51050012Y-37100002D02*
X52050002Y-37100002D01*
X23015000Y-36965000D02*
X24850000Y-38800000D01*
X52850000Y-37900000D02*
X52850000Y-44850000D01*
X29645000Y-29095000D02*
X29650000Y-29100000D01*
X23015000Y-35500000D02*
X23015000Y-36965000D01*
X29650000Y-29100000D02*
X27550000Y-31200000D01*
X58800009Y-51400009D02*
X58800009Y-52575002D01*
X52050002Y-37100002D02*
X52850000Y-37900000D01*
X24600000Y-31200000D02*
X23015000Y-32785000D01*
X24850000Y-38800000D02*
X36650000Y-38800000D01*
%TO.N,/SCL*%
X60900000Y-51000000D02*
X60900000Y-52525005D01*
X59465000Y-42165000D02*
X59465000Y-48000000D01*
X27685718Y-31700000D02*
X25850000Y-31700000D01*
X53300000Y-27520000D02*
X53300000Y-28900000D01*
X60900000Y-52525005D02*
X60850003Y-52575002D01*
X24285000Y-33265000D02*
X24285000Y-35500000D01*
X54650000Y-37350000D02*
X59465000Y-42165000D01*
X33000000Y-29600000D02*
X32950000Y-29550000D01*
X59465000Y-49565000D02*
X60900000Y-51000000D01*
X54650000Y-30250000D02*
X54650000Y-37350000D01*
X30400000Y-30299990D02*
X29085728Y-30299990D01*
X53300000Y-28900000D02*
X54650000Y-30250000D01*
X36000000Y-29600000D02*
X33000000Y-29600000D01*
X25850000Y-31700000D02*
X24285000Y-33265000D01*
X29085728Y-30299990D02*
X27685718Y-31700000D01*
X59465000Y-48000000D02*
X59465000Y-49565000D01*
X53280000Y-27500000D02*
X53300000Y-27520000D01*
%TO.N,/SDA*%
X34864282Y-31800000D02*
X33350000Y-31800000D01*
X35663803Y-31000480D02*
X34864282Y-31800000D01*
X62000000Y-44700000D02*
X62005000Y-44705000D01*
X41049520Y-31000480D02*
X35663803Y-31000480D01*
X47900000Y-24150000D02*
X41049520Y-31000480D01*
X55820000Y-37884282D02*
X62000000Y-44064282D01*
X29650000Y-31800000D02*
X28095000Y-33355000D01*
X62900003Y-51200003D02*
X62900003Y-52575000D01*
X62005000Y-50305000D02*
X62900003Y-51200003D01*
X55820000Y-24150000D02*
X55820000Y-27500000D01*
X28095000Y-33355000D02*
X28095000Y-35500000D01*
X62005000Y-44705000D02*
X62005000Y-48000000D01*
X62000000Y-44064282D02*
X62000000Y-44700000D01*
X55820000Y-27500000D02*
X55820000Y-37884282D01*
X83350000Y-24150000D02*
X47900000Y-24150000D01*
X62005000Y-48000000D02*
X62005000Y-50305000D01*
X30900000Y-31800000D02*
X29650000Y-31800000D01*
%TO.N,/GPIO2*%
X67000000Y-33300000D02*
X68500000Y-33300000D01*
X41450000Y-38300000D02*
X39270000Y-38300000D01*
X42687500Y-38300000D02*
X42787500Y-38400000D01*
X66000000Y-34300000D02*
X67000000Y-33300000D01*
X39270000Y-38300000D02*
X39255000Y-38285000D01*
X41450000Y-38300000D02*
X42687500Y-38300000D01*
%TO.N,/GPIO36*%
X25555000Y-52500000D02*
X25555000Y-58505000D01*
X25555000Y-58505000D02*
X29740000Y-62690000D01*
X29740000Y-62690000D02*
X29740000Y-66375000D01*
%TO.N,/GPIO39*%
X26825000Y-52500000D02*
X26825000Y-57475000D01*
X26825000Y-57475000D02*
X32750000Y-63400000D01*
X37350000Y-64950000D02*
X37350000Y-66375000D01*
X32750000Y-63400000D02*
X35800000Y-63400000D01*
X35800000Y-63400000D02*
X37350000Y-64950000D01*
%TO.N,/GPIO34*%
X33150000Y-62450000D02*
X38050000Y-62450000D01*
X28095000Y-52500000D02*
X28095000Y-57395000D01*
X38050000Y-62450000D02*
X39890000Y-64290000D01*
X28095000Y-57395000D02*
X33150000Y-62450000D01*
X39890000Y-64290000D02*
X39890000Y-66375000D01*
%TO.N,/GPIO35*%
X29365000Y-57315000D02*
X33900000Y-61850000D01*
X42430000Y-63930000D02*
X42430000Y-66375000D01*
X33900000Y-61850000D02*
X40350000Y-61850000D01*
X40350000Y-61850000D02*
X42430000Y-63930000D01*
X29365000Y-52500000D02*
X29365000Y-57315000D01*
%TO.N,/GPIO32*%
X30635000Y-57035000D02*
X35000000Y-61400000D01*
X44970000Y-64570000D02*
X44970000Y-66375000D01*
X30635000Y-52500000D02*
X30635000Y-57035000D01*
X35000000Y-61400000D02*
X41800000Y-61400000D01*
X41800000Y-61400000D02*
X44970000Y-64570000D01*
%TO.N,/GPIO27*%
X35715000Y-52500000D02*
X35715000Y-56215000D01*
X49100000Y-58450000D02*
X55130000Y-64480000D01*
X37950000Y-58450000D02*
X49100000Y-58450000D01*
X55130000Y-64480000D02*
X55130000Y-66375000D01*
X35715000Y-56215000D02*
X37950000Y-58450000D01*
%TO.N,/GPIO14*%
X57670000Y-64570000D02*
X57670000Y-66375000D01*
X38600000Y-57850000D02*
X50950000Y-57850000D01*
X36985000Y-52500000D02*
X36985000Y-56235000D01*
X36985000Y-56235000D02*
X38600000Y-57850000D01*
X50950000Y-57850000D02*
X57670000Y-64570000D01*
%TO.N,/GPIO12*%
X60210000Y-64510000D02*
X60210000Y-66375000D01*
X52950000Y-57250000D02*
X60210000Y-64510000D01*
X38255000Y-52500000D02*
X38255000Y-55905000D01*
X39600000Y-57250000D02*
X52950000Y-57250000D01*
X38255000Y-55905000D02*
X39600000Y-57250000D01*
%TO.N,/GPIO13*%
X41095000Y-48445000D02*
X42550000Y-49900000D01*
X42550000Y-53300000D02*
X45900000Y-56650000D01*
X55200000Y-56650000D02*
X62750000Y-64200000D01*
X39255000Y-48445000D02*
X41095000Y-48445000D01*
X45900000Y-56650000D02*
X55200000Y-56650000D01*
X42550000Y-49900000D02*
X42550000Y-53300000D01*
X62750000Y-64200000D02*
X62750000Y-66375000D01*
%TO.N,/GPIO15*%
X39255000Y-39555000D02*
X35645000Y-39555000D01*
X46449980Y-55900000D02*
X54600000Y-55900000D01*
X34300000Y-40900000D02*
X34300000Y-49150000D01*
X35500000Y-50350000D02*
X36450000Y-50350000D01*
X43899988Y-53350008D02*
X46449980Y-55900000D01*
X34300000Y-49150000D02*
X35500000Y-50350000D01*
X35645000Y-39555000D02*
X34300000Y-40900000D01*
%TO.N,/GPIO4*%
X37050000Y-33749996D02*
X37050000Y-35435000D01*
X37050000Y-35435000D02*
X36985000Y-35500000D01*
X60300000Y-28700000D02*
X60950000Y-28700000D01*
X60000000Y-29000000D02*
X60300000Y-28700000D01*
X58450000Y-34400000D02*
X58450000Y-30550000D01*
X42787500Y-36700000D02*
X42787500Y-35237500D01*
X40050000Y-32500000D02*
X38299996Y-32500000D01*
X72650000Y-33250000D02*
X76250000Y-33250000D01*
X42787500Y-35237500D02*
X40050000Y-32500000D01*
X38299996Y-32500000D02*
X37050000Y-33749996D01*
X58450000Y-30550000D02*
X60000000Y-29000000D01*
%TO.N,/RX2*%
X74705000Y-45805000D02*
X74705000Y-48000000D01*
X38065480Y-31899520D02*
X44050000Y-31899520D01*
X73100000Y-51400000D02*
X73100000Y-52575000D01*
X69014282Y-36100000D02*
X70750480Y-37836198D01*
X70750480Y-37836198D02*
X70750480Y-41850480D01*
X74705000Y-48000000D02*
X74705000Y-49795000D01*
X61249992Y-33900008D02*
X63449984Y-36100000D01*
X44050000Y-31899520D02*
X48349520Y-31899520D01*
X63449984Y-36100000D02*
X69014282Y-36100000D01*
X35715000Y-34250000D02*
X38065480Y-31899520D01*
X35715000Y-35500000D02*
X35715000Y-34250000D01*
X70750480Y-41850480D02*
X74705000Y-45805000D01*
X74705000Y-49795000D02*
X73100000Y-51400000D01*
X48349520Y-31899520D02*
X49450000Y-33000000D01*
%TO.N,/TX2*%
X68749520Y-36549520D02*
X70300960Y-38100960D01*
X60300000Y-31500000D02*
X60300000Y-33900000D01*
X72165000Y-45065000D02*
X72165000Y-48000000D01*
X71100000Y-52574984D02*
X71100010Y-52574994D01*
X62949520Y-36549520D02*
X68749520Y-36549520D01*
X35850000Y-31450000D02*
X49450000Y-31450000D01*
X70300960Y-38100960D02*
X70300960Y-43200960D01*
X49450000Y-31450000D02*
X49500000Y-31500000D01*
X34445000Y-35500000D02*
X34445000Y-32855000D01*
X71100000Y-51000000D02*
X71100000Y-52574984D01*
X60300000Y-33900000D02*
X62949520Y-36549520D01*
X72165000Y-49935000D02*
X71100000Y-51000000D01*
X70300960Y-43200960D02*
X72165000Y-45065000D01*
X34445000Y-32855000D02*
X35850000Y-31450000D01*
X72165000Y-48000000D02*
X72165000Y-49935000D01*
%TO.N,Net-(D1-Pad2)*%
X58800009Y-56287511D02*
X58800009Y-54625002D01*
%TO.N,Net-(D4-Pad2)*%
X60849992Y-56287511D02*
X60849992Y-54625013D01*
%TO.N,Net-(D5-Pad2)*%
X62900001Y-56237498D02*
X62900001Y-54625002D01*
%TO.N,Net-(D6-Pad2)*%
X64950009Y-56237498D02*
X64950009Y-54625006D01*
%TO.N,Net-(D7-Pad2)*%
X67000003Y-56237500D02*
X67000003Y-54624995D01*
%TO.N,Net-(D8-Pad2)*%
X69050003Y-56225000D02*
X69050003Y-54625000D01*
%TO.N,Net-(D9-Pad2)*%
X71100003Y-56237500D02*
X71100003Y-54624993D01*
%TO.N,Net-(D10-Pad2)*%
X73200003Y-56237500D02*
X73200003Y-54624997D01*
%TO.N,Net-(JP1-Pad2)*%
X67000003Y-58062500D02*
X64950011Y-58062500D01*
X73900000Y-41550000D02*
X77500000Y-45150000D01*
X73900000Y-39440000D02*
X73900000Y-41550000D01*
X60849992Y-58112511D02*
X58800009Y-58112511D01*
X75850000Y-58050000D02*
X73212503Y-58050000D01*
X62900001Y-58062498D02*
X60900005Y-58062498D01*
X69050003Y-58050000D02*
X67012503Y-58050000D01*
X64950009Y-58062498D02*
X62900001Y-58062498D01*
X71100003Y-58062500D02*
X69062503Y-58062500D01*
X73200003Y-58062500D02*
X71100003Y-58062500D01*
D39*
%TO.N,VDDMICRO*%
X24312500Y-60000000D02*
X24312500Y-58162500D01*
X23362500Y-57412500D02*
X24300000Y-57412500D01*
X24312500Y-58162500D02*
X24300000Y-58150000D01*
X24300000Y-58150000D02*
X24300000Y-57412500D01*
D37*
X26150000Y-60000000D02*
X24312500Y-60000000D01*
D39*
X23015000Y-57065000D02*
X23362500Y-57412500D01*
X23015000Y-52500000D02*
X23015000Y-57065000D01*
%TD*%
%TA.AperFunction,Conductor*%
%TO.N,Earth*%
G36*
X79292667Y-48570002D02*
G01*
X79339160Y-48623658D01*
X79350545Y-48675452D01*
X79399450Y-59923452D01*
X79379744Y-59991659D01*
X79326291Y-60038385D01*
X79273451Y-60050000D01*
X77876000Y-60050000D01*
X77807879Y-60029998D01*
X77761386Y-59976342D01*
X77750000Y-59924000D01*
X77750000Y-48676000D01*
X77770002Y-48607879D01*
X77823658Y-48561386D01*
X77876000Y-48550000D01*
X79224546Y-48550000D01*
X79292667Y-48570002D01*
G37*
%TD.AperFunction*%
%TD*%
%TA.AperFunction,Conductor*%
%TO.N,VDD3V3*%
G36*
X82608621Y-48570002D02*
G01*
X82655114Y-48623658D01*
X82666500Y-48676000D01*
X82666500Y-49071233D01*
X82665973Y-49082416D01*
X82664298Y-49089909D01*
X82664547Y-49097835D01*
X82664547Y-49097836D01*
X82666438Y-49157986D01*
X82666500Y-49161945D01*
X82666500Y-49189856D01*
X82666997Y-49193790D01*
X82666997Y-49193791D01*
X82667005Y-49193856D01*
X82667938Y-49205693D01*
X82669327Y-49249889D01*
X82674978Y-49269339D01*
X82678987Y-49288700D01*
X82681526Y-49308797D01*
X82684445Y-49316168D01*
X82684445Y-49316170D01*
X82697804Y-49349912D01*
X82701649Y-49361142D01*
X82713982Y-49403593D01*
X82718015Y-49410412D01*
X82718017Y-49410417D01*
X82724293Y-49421028D01*
X82732988Y-49438776D01*
X82740448Y-49457617D01*
X82745110Y-49464033D01*
X82745110Y-49464034D01*
X82766436Y-49493387D01*
X82772952Y-49503307D01*
X82782453Y-49519372D01*
X82800000Y-49583512D01*
X82800000Y-51300000D01*
X84549757Y-51300000D01*
X84599796Y-51310362D01*
X84615541Y-51317175D01*
X84626187Y-51322391D01*
X84664940Y-51343695D01*
X84672615Y-51345666D01*
X84672616Y-51345666D01*
X84684562Y-51348733D01*
X84703267Y-51355137D01*
X84721855Y-51363181D01*
X84729678Y-51364420D01*
X84729688Y-51364423D01*
X84765524Y-51370099D01*
X84777144Y-51372505D01*
X84812289Y-51381528D01*
X84819970Y-51383500D01*
X84840224Y-51383500D01*
X84859934Y-51385051D01*
X84879943Y-51388220D01*
X84887835Y-51387474D01*
X84923961Y-51384059D01*
X84935819Y-51383500D01*
X89324000Y-51383500D01*
X89392121Y-51403502D01*
X89438614Y-51457158D01*
X89450000Y-51509500D01*
X89450000Y-53624000D01*
X89429998Y-53692121D01*
X89376342Y-53738614D01*
X89324000Y-53750000D01*
X82650000Y-53750000D01*
X82650000Y-54274000D01*
X82629998Y-54342121D01*
X82576342Y-54388614D01*
X82524000Y-54400000D01*
X81376000Y-54400000D01*
X81307879Y-54379998D01*
X81261386Y-54326342D01*
X81250000Y-54274000D01*
X81250000Y-50200000D01*
X80476000Y-50200000D01*
X80407879Y-50179998D01*
X80361386Y-50126342D01*
X80350000Y-50074000D01*
X80350000Y-48676000D01*
X80370002Y-48607879D01*
X80423658Y-48561386D01*
X80476000Y-48550000D01*
X82540500Y-48550000D01*
X82608621Y-48570002D01*
G37*
%TD.AperFunction*%
%TD*%
%TA.AperFunction,Conductor*%
%TO.N,Earth*%
G36*
X28742121Y-42520002D02*
G01*
X28788614Y-42573658D01*
X28800000Y-42626000D01*
X28800000Y-47624000D01*
X28779998Y-47692121D01*
X28726342Y-47738614D01*
X28674000Y-47750000D01*
X25676000Y-47750000D01*
X25607879Y-47729998D01*
X25561386Y-47676342D01*
X25550000Y-47624000D01*
X25550000Y-42626000D01*
X25570002Y-42557879D01*
X25623658Y-42511386D01*
X25676000Y-42500000D01*
X28674000Y-42500000D01*
X28742121Y-42520002D01*
G37*
%TD.AperFunction*%
%TD*%
M02*
