%TF.GenerationSoftware,KiCad,Pcbnew,(6.0.2)*%
%TF.CreationDate,2022-06-23T10:32:30-05:00*%
%TF.ProjectId,ESP32_BUAP_DESARROLLO,45535033-325f-4425-9541-505f44455341,rev?*%
%TF.SameCoordinates,Original*%
%TF.FileFunction,Soldermask,Bot*%
%TF.FilePolarity,Negative*%
%FSLAX46Y46*%
G04 Gerber Fmt 4.6, Leading zero omitted, Abs format (unit mm)*
G04 Created by KiCad (PCBNEW (6.0.2)) date 2022-06-23 10:32:30*
%MOMM*%
%LPD*%
G01*
G04 APERTURE LIST*
%ADD10R,1.700000X1.700000*%
%ADD11O,1.700000X1.700000*%
%ADD12C,1.000000*%
G04 APERTURE END LIST*
D10*
%TO.C,J7*%
X37350000Y-66375000D03*
D11*
X39890000Y-66375000D03*
X42430000Y-66375000D03*
X44970000Y-66375000D03*
X47510000Y-66375000D03*
X50050000Y-66375000D03*
X52590000Y-66375000D03*
X55130000Y-66375000D03*
X57670000Y-66375000D03*
X60210000Y-66375000D03*
X62750000Y-66375000D03*
X65290000Y-66375000D03*
X67830000Y-66375000D03*
X70370000Y-66375000D03*
X72910000Y-66375000D03*
X75450000Y-66375000D03*
%TD*%
D10*
%TO.C,J2*%
X22025000Y-27275000D03*
D11*
X24565000Y-27275000D03*
X27105000Y-27275000D03*
X29645000Y-27275000D03*
X32185000Y-27275000D03*
X34725000Y-27275000D03*
%TD*%
D10*
%TO.C,J5*%
X92550000Y-31770000D03*
D11*
X92550000Y-29230000D03*
X92550000Y-26690000D03*
X92550000Y-24150000D03*
%TD*%
D10*
%TO.C,J4*%
X83350000Y-31770000D03*
D11*
X83350000Y-29230000D03*
X83350000Y-26690000D03*
X83350000Y-24150000D03*
%TD*%
D10*
%TO.C,J6*%
X87950000Y-31770000D03*
D11*
X87950000Y-29230000D03*
X87950000Y-26690000D03*
X87950000Y-24150000D03*
%TD*%
D10*
%TO.C,J9*%
X56925007Y-48000006D03*
D11*
X59465007Y-48000006D03*
X62005007Y-48000006D03*
X64545007Y-48000006D03*
X67085007Y-48000006D03*
X69625007Y-48000006D03*
X72165007Y-48000006D03*
X74705007Y-48000006D03*
%TD*%
D10*
%TO.C,J3*%
X48200000Y-27500000D03*
D11*
X50740000Y-27500000D03*
X53280000Y-27500000D03*
X55820000Y-27500000D03*
%TD*%
D10*
%TO.C,J11*%
X90650000Y-66400000D03*
D11*
X93190000Y-66400000D03*
%TD*%
D10*
%TO.C,J10*%
X27199996Y-66375001D03*
D11*
X29739996Y-66375001D03*
X32279996Y-66375001D03*
%TD*%
D10*
%TO.C,JP1*%
X73900000Y-36900000D03*
D11*
X73900000Y-39440000D03*
%TD*%
D10*
%TO.C,J8*%
X79300000Y-66350000D03*
D11*
X81840000Y-66350000D03*
X84380000Y-66350000D03*
X86920000Y-66350000D03*
%TD*%
D12*
%TO.C,J1*%
X95125007Y-47100012D03*
X95125007Y-42700012D03*
%TD*%
M02*
